# AST/ASF file generated using VICON BodyLanguage
# -----------------------------------------------
:version 1.10
:name VICON
:units
  mass 1.0
  length 0.45
  angle deg
:documentation
   .ast/.asf automatically generated from VICON data using
   VICON BodyBuilder and BodyLanguage model FoxedUp or BRILLIANT.MOD
:root
   order TX TY TZ RX RY RZ
   axis XYZ
   position 0 0 0  
   orientation 0 0 0 
:bonedata
  begin
     id 1 
     name lhipjoint
     direction 0.627457 -0.725269 0.283342 
     length 2.53237 
     axis 0 0 0  XYZ
  end
  begin
     id 2 
     name lfemur
     direction 0.34202 -0.939693 0  
     length 7.32496  
     axis 0 0 20  XYZ
    dof rx ry rz
    limits (-160.0 20.0)
           (-70.0 70.0)
           (-60.0 70.0)
  end
  begin
     id 3 
     name ltibia
     direction 0.34202 -0.939693 0   
     length 7.69674   
     axis 0 0 20   XYZ
    dof rx
    limits (-10.0 170.0)
  end
  begin
     id 4 
     name lfoot
     direction 0.127289 -0.349722 0.928166   
     length 1.8612   
     axis -90 7.62852e-016 20   XYZ
    dof rx rz
    limits (-45.0 90.0)
           (-70.0 20.0)
  end
  begin
     id 5 
     name ltoes
     direction 1.53561e-011 -4.21864e-011 1   
     length 0.925608   
     axis -90 7.62852e-016 20   XYZ
    dof rx
    limits (-90.0 20.0)
  end
  begin
     id 6 
     name rhipjoint
     direction -0.609094 -0.738725 0.288599   
     length 2.48624  
     axis 0 0 0  XYZ 
  end
  begin
     id 7 
     name rfemur
     direction -0.34202 -0.939693 0   
     length 7.44259   
     axis 0 0 -20   XYZ
    dof rx ry rz
    limits (-160.0 20.0)
           (-70.0 70.0)
           (-70.0 60.0)
  end
  begin
     id 8 
     name rtibia
     direction -0.34202 -0.939693 0   
     length 7.7781   
     axis 0 0 -20   XYZ
    dof rx
    limits (-10.0 170.0)
 end
 begin
     id 9 
     name rfoot
     direction -0.107015 -0.294021 0.949789   
     length 2.14741  
     axis -90 -7.62852e-016 -20   XYZ
    dof rx rz
    limits (-45.0 90.0)
           (-20.0 70.0)
  end
  begin
     id 10 
     name rtoes
     direction -1.53497e-011 -4.21924e-011 1   
     length 1.0706   
     axis -90 -7.62852e-016 -20   XYZ
    dof rx
    limits (-90.0 20.0)
  end
  begin
     id 11 
     name lowerback
     direction -0.0142066 0.998112 -0.0597545   
     length 1.86627   
     axis 0 0 0   XYZ
    dof rx ry rz
    limits (-20.0 45.0)
           (-30.0 30.0)
           (-30.0 30.0)
  end
  begin
     id 12 
     name upperback
     direction 0.00547294 0.999744 0.0219437   
     length 1.86272   
     axis 0 0 0   XYZ
    dof rx ry rz
    limits (-20.0 45.0)
           (-30.0 30.0)
           (-30.0 30.0)
  end
  begin
     id 13 
     name thorax
     direction 0.0116162 0.998704 0.0495538   
     length 1.8703   
     axis 0 0 0   XYZ
    dof rx ry rz
    limits (-20.0 45.0)
           (-30.0 30.0)
           (-30.0 30.0)
  end
  begin
     id 14 
     name lowerneck
     direction -0.0106574 0.998739 0.0490586   
     length 1.8074   
     axis 0 0 0   XYZ
    dof rx ry rz
    limits (-20.0 45.0)
           (-30.0 30.0)
           (-30.0 30.0)
  end
  begin
     id 15 
     name upperneck
     direction 0.030527 0.976587 -0.212944   
     length 1.80681   
     axis 0 0 0   XYZ
    dof rx ry rz
    limits (-20.0 45.0)
           (-30.0 30.0)
           (-30.0 30.0)
  end
  begin
     id 16
     name head
     direction 0.00869225 0.997035 -0.0764531  
     length 1.8313  
     axis 0 0 0   XYZ
    dof rx ry rz
    limits (-20.0 45.0)
           (-30.0 30.0)
           (-30.0 30.0)
  end
  begin
     id 17 
     name lclavicle
     direction 0.915958 0.399447 0.0382386  
     length 3.78965  
     axis 0 0 0   XYZ
    dof ry rz
    limits (-20.0 10.0)
           (0.0 20.0)
  end
  begin
     id 18 
     name lhumerus
     direction 1 -4.48967e-011 3.19303e-027   
     length 4.78095   
     axis -180 -30 -90   XYZ
    dof rx ry rz
    limits (-60.0 90.0)
           (-90.0 90.0)
           (-90.0 90.0)
  end
  begin
     id 19
     name lradius
     direction 1 -4.48967e-011 -3.77974e-027   
     length 3.58615   
     axis -180 -30 -90   XYZ
    dof rx
    limits (-10.0 170.0)
  end
  begin
     id 20
     name lwrist
     direction 1 -4.48927e-011 1.2807e-027   
     length 1.79307   
     axis 1.91374e-015 90 90   XYZ
    dof ry
    limits (-180.0 0.0)
 end
  begin
     id 21 
     name lhand
     direction 1 -4.49036e-011 2.5614e-027   
     length 0.659812   
     axis -1.63439e-015 90 90   XYZ
    dof rx rz
    limits (-90.0 90.0)
           (-45.0 45.0)
  end
  begin
     id 22 
     name lfingers
     direction 1 -4.49052e-011 5.1228e-027   
     length 0.531957   
     axis -3.26879e-015 90 90   XYZ
    dof rx
    limits (0.0 90.0)
  end
  begin
     id 23
     name lthumb
     direction 0.707107 -6.35012e-011 0.707107   
     length 0.763787   
     axis -90 45 2.85299e-015   XYZ
    dof rx rz
    limits (-45.0 45.0)
           (-45.0 45.0)
  end
  begin
     id 24 
     name rclavicle
     direction -0.895351 0.435135 0.0948887   
     length 3.70497  
     axis 0 0 0   XYZ 
    dof ry rz
    limits (-10.0 20.0)
           (-20.0 0.0)
  end
  begin
     id 25 
     name rhumerus
     direction -1 -4.48971e-011 2.38946e-027  
     length 4.48913   
     axis -180 30 90   XYZ
    dof rx ry rz
    limits (-90.0 60.0)
           (-90.0 90.0)
           (-90.0 90.0)
  end
  begin
     id 26 
     name rradius
     direction -1 -4.4895e-011 4.38668e-027   
     length 3.7051   
     axis -180 30 90   XYZ
    dof rx
    limits (-10.0 170.0)
  end
  begin
     id 27 
     name rwrist
     direction -1 -4.49007e-011 1.2807e-027   
     length 1.85255   
     axis 1.91374e-015 -90 -90   XYZ
    dof ry
    limits (-180.0 0.0)
  end
  begin
     id 28
     name rhand
     direction -1 -4.48851e-011 2.5614e-027   
     length 0.449136   
     axis -1.63439e-015 -90 -90   XYZ
    dof rx rz
    limits (-90.0 90.0)
           (-45.0 45.0)
  end
  begin
     id 29
     name rfingers
     direction -1 -4.49128e-011 5.1228e-027   
     length 0.362105   
     axis -3.26879e-015 -90 -90   XYZ
    dof rx
    limits (0.0 90.0)
  end
  begin
     id 30
     name rthumb
     direction -0.707107 -6.34851e-011 0.707107   
     length 0.519912   
     axis -90 -45 -2.85299e-015   XYZ
    dof rx rz
    limits (-45.0 45.0)
           (-45.0 45.0)
  end
:hierarchy
  begin
    root lhipjoint rhipjoint lowerback
    lhipjoint lfemur
    lfemur ltibia
    ltibia lfoot
    lfoot ltoes
    rhipjoint rfemur
    rfemur rtibia
    rtibia rfoot
    rfoot rtoes
    lowerback upperback
    upperback thorax
    thorax lowerneck lclavicle rclavicle
    lowerneck upperneck
    upperneck head
    lclavicle lhumerus
    lhumerus lradius
    lradius lwrist
    lwrist lhand lthumb
    lhand lfingers
    rclavicle rhumerus
    rhumerus rradius
    rradius rwrist
    rwrist rhand rthumb
    rhand rfingers
  end

#!OML:ASF I:\Actors\actors\Patient Classification 2\Patient 1\Session 1\actor1.ASF
:FULLY-SPECIFIED
:DEGREES
1
root -0.816751 18.6531 6.12451 1.22548 1.15628 -1.23645
lowerback 0.902851 -0.0138291 -1.06398
upperback -1.36497 -0.0373558 0.0329884
thorax -1.90359 -0.00306509 0.630975
lowerneck -10.9137 -3.70492 -3.50665
upperneck 21.5556 -5.6462 5.16326
head 8.77078 -2.42417 1.71914
rclavicle 6.64686e-016 -3.97569e-016
rhumerus -43.9015 1.32633 -91.1608
rradius 39.3604
rwrist 22.887
rhand -5.6182 -31.7959
rfingers 7.12502
rthumb 20.1993 -60.7657
lclavicle 6.64686e-016 -3.97569e-016
lhumerus -40.9171 1.65512 91.8453
lradius 38.0554
lwrist -10.7225
lhand -1.91625 -23.7087
lfingers 7.12502
lthumb 23.7537 4.84315
rfemur 9.30403 3.70666 16.0787
rtibia 7.95139e-015
rfoot -22.2478 -13.7431
rtoes -1.33987
lfemur -3.66391 -9.17344 -12.4291
ltibia 20.7222
lfoot -21.4407 9.25439
ltoes -55.9896
2
root -0.816775 18.653 6.12429 1.2288 1.16227 -1.25583
lowerback 0.90516 -0.028623 -1.04619
upperback -1.35241 -0.0563384 0.055503
thorax -1.89162 -0.0127445 0.64455
lowerneck -10.9794 -3.67335 -3.46943
upperneck 21.5861 -5.59051 5.08085
head 8.78705 -2.40175 1.69029
rclavicle -5.41067e-015 -7.95139e-016
rhumerus -43.8187 1.36236 -91.1477
rradius 39.3536
rwrist 22.8498
rhand -5.61463 -31.9631
rfingers 7.12502
rthumb 20.2028 -60.9325
lclavicle -5.41067e-015 -7.95139e-016
lhumerus -40.889 1.64134 91.8579
lradius 38.0361
lwrist -10.6654
lhand -1.95924 -23.6781
lfingers 7.12502
lthumb 23.7125 4.87911
rfemur 9.3008 3.70061 16.1014
rtibia -1.27222e-014
rfoot -22.2653 -13.7433
rtoes -1.50598
lfemur -3.67044 -9.17533 -12.406
ltibia 20.726
lfoot -21.4292 9.26867
ltoes -56.0076
3
root -0.816416 18.6535 6.124 1.23901 1.16699 -1.25454
lowerback 0.907794 -0.0358508 -1.04072
upperback -1.35944 -0.0658609 0.0606935
thorax -1.90014 -0.0174662 0.647055
lowerneck -10.9668 -3.64774 -3.38555
upperneck 21.5791 -5.54667 4.97334
head 8.77451 -2.3856 1.64501
rclavicle -5.0131e-015 -1.98785e-016
rhumerus -43.8055 1.34199 -91.1321
rradius 39.394
rwrist 22.8297
rhand -5.63588 -32.099
rfingers 7.12502
rthumb 20.1824 -61.0706
lclavicle -5.0131e-015 -1.98785e-016
lhumerus -40.9008 1.63558 91.8473
lradius 38.0302
lwrist -10.6797
lhand -1.93851 -23.6457
lfingers 7.12502
lthumb 23.7324 4.90894
rfemur 9.28948 3.69538 16.0976
rtibia 3.18055e-015
rfoot -22.2764 -13.7306
rtoes -1.56715
lfemur -3.67858 -9.18679 -12.4077
ltibia 20.719
lfoot -21.4419 9.27643
ltoes -56.0417
4
root -0.816218 18.6537 6.1234 1.24449 1.17103 -1.23507
lowerback 0.936701 -0.0381729 -1.03962
upperback -1.38076 -0.0696709 0.0447733
thorax -1.93821 -0.0192227 0.630266
lowerneck -10.9407 -3.62249 -3.30311
upperneck 21.5899 -5.515 4.91199
head 8.76764 -2.37061 1.6145
rclavicle -3.16813e-015 -8.15017e-015
rhumerus -43.8222 1.27861 -91.1133
rradius 39.414
rwrist 22.93
rhand -5.63669 -32.0869
rfingers 7.12502
rthumb 20.1816 -61.0586
lclavicle -3.16813e-015 -8.15017e-015
lhumerus -40.9557 1.62366 91.8074
lradius 38.0572
lwrist -10.7408
lhand -1.90349 -23.6725
lfingers 7.12502
lthumb 23.766 4.87775
rfemur 9.28573 3.69075 16.0748
rtibia 6.36111e-015
rfoot -22.2789 -13.7037
rtoes -1.33448
lfemur -3.6849 -9.19198 -12.428
ltibia 20.7118
lfoot -21.449 9.25
ltoes -56.0216
5
root -0.816264 18.6537 6.12286 1.2487 1.16695 -1.21432
lowerback 0.964697 -0.0384698 -1.04041
upperback -1.38684 -0.0705443 0.0393538
thorax -1.96017 -0.0195507 0.625217
lowerneck -10.9943 -3.59769 -3.29754
upperneck 21.6489 -5.47896 4.89349
head 8.79534 -2.35338 1.61062
rclavicle 1.01256e-015 3.18055e-015
rhumerus -43.8059 1.21554 -91.0754
rradius 39.4131
rwrist 23.0391
rhand -5.60716 -31.9551
rfingers 7.12502
rthumb 20.21 -60.9237
lclavicle 1.01256e-015 3.18055e-015
lhumerus -40.9842 1.61636 91.7956
lradius 38.1001
lwrist -10.7577
lhand -1.92863 -23.7198
lfingers 7.12502
lthumb 23.7418 4.83362
rfemur 9.28111 3.69426 16.0519
rtibia -2.06736e-014
rfoot -22.2644 -13.6925
rtoes -1.17083
lfemur -3.687 -9.1697 -12.4467
ltibia 20.699
lfoot -21.4116 9.22384
ltoes -56.0372
6
root -0.816198 18.654 6.12233 1.24799 1.16381 -1.19088
lowerback 0.998838 -0.0485636 -1.05386
upperback -1.37796 -0.0844183 0.0512995
thorax -1.96996 -0.0261721 0.645404
lowerneck -11.0878 -3.56615 -3.31921
upperneck 21.707 -5.41934 4.84237
head 8.82892 -2.32995 1.60229
rclavicle 9.91439e-015 3.18055e-015
rhumerus -43.7852 1.24724 -91.0595
rradius 39.4226
rwrist 23.0105
rhand -5.72485 -31.8228
rfingers 7.12502
rthumb 20.0968 -60.8034
lclavicle 9.91439e-015 3.18055e-015
lhumerus -40.972 1.6346 91.8092
lradius 38.1273
lwrist -10.7258
lhand -1.97624 -23.7222
lfingers 7.12502
lthumb 23.6962 4.83712
rfemur 9.28016 3.69728 16.0251
rtibia 1.27222e-014
rfoot -22.253 -13.6977
rtoes -1.24905
lfemur -3.68487 -9.14694 -12.4705
ltibia 20.693
lfoot -21.3912 9.20691
ltoes -56.0207
7
root -0.815996 18.6542 6.12176 1.24118 1.16818 -1.176
lowerback 1.04396 -0.0639971 -1.06024
upperback -1.37202 -0.105459 0.0615961
thorax -1.9888 -0.0364288 0.660167
lowerneck -11.1528 -3.52665 -3.32875
upperneck 21.7402 -5.35499 4.81125
head 8.84872 -2.30213 1.59968
rclavicle 6.65929e-015 5.1684e-015
rhumerus -43.7617 1.28465 -91.0605
rradius 39.3897
rwrist 22.9283
rhand -5.89333 -31.6637
rfingers 7.12502
rthumb 19.9349 -60.6612
lclavicle 6.65929e-015 5.1684e-015
lhumerus -40.947 1.69595 91.8103
lradius 38.1277
lwrist -10.724
lhand -1.94985 -23.711
lfingers 7.12502
lthumb 23.7215 4.84502
rfemur 9.28733 3.69333 16.0076
rtibia 1.90833e-014
rfoot -22.2355 -13.7077
rtoes -1.28891
lfemur -3.67808 -9.15029 -12.4895
ltibia 20.6936
lfoot -21.3804 9.20732
ltoes -55.9786
8
root -0.815335 18.654 6.12126 1.23369 1.17651 -1.18978
lowerback 1.0729 -0.0677867 -1.02458
upperback -1.3691 -0.110114 0.0619473
thorax -2.00202 -0.0392226 0.64072
lowerneck -11.157 -3.50314 -3.32138
upperneck 21.7343 -5.32673 4.82689
head 8.84638 -2.28663 1.60689
rclavicle -2.45375e-015 -5.96354e-016
rhumerus -43.744 1.26034 -91.0668
rradius 39.3546
rwrist 22.8319
rhand -5.96682 -31.5874
rfingers 7.12502
rthumb 19.8642 -60.5922
lclavicle -2.45375e-015 -5.96354e-016
lhumerus -40.9431 1.71116 91.8044
lradius 38.1317
lwrist -10.7383
lhand -1.91154 -23.7164
lfingers 7.12502
lthumb 23.7582 4.83487
rfemur 9.29396 3.68588 16.0219
rtibia -4.77083e-015
rfoot -22.2196 -13.715
rtoes -1.29292
lfemur -3.67454 -9.13818 -12.4749
ltibia 20.6951
lfoot -21.3522 9.2246
ltoes -56.0441
9
root -0.815101 18.6538 6.1203 1.23344 1.1788 -1.21106
lowerback 1.09219 -0.0496257 -0.969272
upperback -1.3744 -0.0853989 0.0400044
thorax -2.01883 -0.0277744 0.586576
lowerneck -11.1087 -3.49843 -3.26367
upperneck 21.6935 -5.33284 4.83566
head 8.82236 -2.28517 1.60019
rclavicle 1.37907e-015 0
rhumerus -43.7735 1.17083 -91.0908
rradius 39.3616
rwrist 22.7501
rhand -6.00169 -31.5944
rfingers 7.12502
rthumb 19.8307 -60.6027
lclavicle 1.37907e-015 0
lhumerus -41.0011 1.52433 91.8073
lradius 38.1903
lwrist -10.6596
lhand -1.91245 -23.6952
lfingers 7.12502
lthumb 23.7574 4.85621
rfemur 9.29183 3.68393 16.0462
rtibia -2.06736e-014
rfoot -22.2347 -13.7089
rtoes -1.28357
lfemur -3.68343 -9.10574 -12.4446
ltibia 20.6981
lfoot -21.3607 9.2008
ltoes -56.0295
10
root -0.814271 18.6542 6.11869 1.24896 1.16291 -1.1985
lowerback 1.10498 -0.0321546 -0.949821
upperback -1.38413 -0.0622082 0.0221493
thorax -2.03644 -0.0165079 0.55674
lowerneck -11.0588 -3.48893 -3.21543
upperneck 21.6445 -5.32345 4.81693
head 8.79399 -2.28018 1.58751
rclavicle -9.73424e-015 -8.34896e-015
rhumerus -43.8199 1.12109 -91.1001
rradius 39.379
rwrist 22.7548
rhand -5.94495 -31.5874
rfingers 7.12502
rthumb 19.8853 -60.5901
lclavicle -9.73424e-015 -8.34896e-015
lhumerus -41.0373 1.3899 91.8238
lradius 38.2258
lwrist -10.5946
lhand -1.91171 -23.6324
lfingers 7.12502
lthumb 23.7581 4.91889
rfemur 9.26716 3.69913 16.0279
rtibia 3.18055e-015
rfoot -22.2897 -13.698
rtoes -1.26023
lfemur -3.70615 -9.09791 -12.4588
ltibia 20.703
lfoot -21.3906 9.19408
ltoes -55.9618
11
root -0.812971 18.6546 6.11739 1.26161 1.14993 -1.16054
lowerback 1.12217 -0.0454022 -0.984784
upperback -1.37851 -0.0804451 0.0400211
thorax -2.03998 -0.0249474 0.59519
lowerneck -11.0591 -3.4646 -3.23742
upperneck 21.6046 -5.27533 4.78456
head 8.77786 -2.26312 1.58556
rclavicle -6.18096e-016 1.78906e-015
rhumerus -43.8312 1.23253 -91.1097
rradius 39.3864
rwrist 22.7472
rhand -5.74297 -31.7822
rfingers 7.12502
rthumb 20.0794 -60.7646
lclavicle -6.18096e-016 1.78906e-015
lhumerus -40.9839 1.47747 91.8469
lradius 38.1823
lwrist -10.6218
lhand -1.91802 -23.578
lfingers 7.12502
lthumb 23.752 4.9741
rfemur 9.24364 3.71157 15.9793
rtibia -2.22639e-014
rfoot -22.3119 -13.7012
rtoes -1.25088
lfemur -3.72434 -9.09166 -12.5074
ltibia 20.7097
lfoot -21.3772 9.22773
ltoes -56.0271
12
root -0.812949 18.6551 6.11612 1.27832 1.14057 -1.1615
lowerback 1.14655 -0.0571914 -1.0027
upperback -1.3721 -0.0963038 0.0664997
thorax -2.04677 -0.0323743 0.632859
lowerneck -11.1019 -3.44637 -3.25946
upperneck 21.5946 -5.24127 4.77336
head 8.7811 -2.24942 1.5886
rclavicle -1.18028e-016 9.93923e-016
rhumerus -43.8204 1.35556 -91.1404
rradius 39.366
rwrist 22.6815
rhand -5.51915 -32.1863
rfingers 7.12502
rthumb 20.2945 -61.146
lclavicle -1.18028e-016 9.93923e-016
lhumerus -40.9117 1.52591 91.8737
lradius 38.1216
lwrist -10.6391
lhand -1.95892 -23.5674
lfingers 7.12502
lthumb 23.7128 4.98974
rfemur 9.21643 3.72014 15.9797
rtibia -9.54166e-015
rfoot -22.2672 -13.7269
rtoes -1.33212
lfemur -3.7491 -9.07897 -12.5056
ltibia 20.7184
lfoot -21.351 9.25312
ltoes -56.0929
13
root -0.812645 18.6556 6.11468 1.30387 1.13076 -1.22433
lowerback 1.17277 -0.0550708 -0.928143
upperback -1.37847 -0.0919024 0.0822228
thorax -2.06818 -0.0310514 0.607106
lowerneck -11.1676 -3.44557 -3.24646
upperneck 21.6369 -5.24425 4.7764
head 8.80764 -2.24783 1.5862
rclavicle 2.50034e-015 -2.38542e-015
rhumerus -43.8236 1.38336 -91.1748
rradius 39.3341
rwrist 22.6349
rhand -5.46735 -32.3902
rfingers 7.12502
rthumb 20.3443 -61.3446
lclavicle 2.50034e-015 -2.38542e-015
lhumerus -40.8791 1.51439 91.8719
lradius 38.0872
lwrist -10.6949
lhand -1.98329 -23.6187
lfingers 7.12502
lthumb 23.6894 4.94146
rfemur 9.17986 3.72935 16.0486
rtibia -5.24792e-014
rfoot -22.2448 -13.7421
rtoes -1.39965
lfemur -3.78577 -9.07892 -12.4314
ltibia 20.7303
lfoot -21.3761 9.25146
ltoes -56.0527
14
root -0.81168 18.6556 6.11449 1.30652 1.14111 -1.26022
lowerback 1.19973 -0.0575815 -0.853738
upperback -1.38453 -0.0940087 0.0779503
thorax -2.08959 -0.0331575 0.561136
lowerneck -11.2 -3.44676 -3.22121
upperneck 21.6906 -5.25325 4.77673
head 8.83178 -2.24878 1.5807
rclavicle -7.4948e-015 -6.95746e-015
rhumerus -43.889 1.39228 -91.2258
rradius 39.3546
rwrist 22.569
rhand -5.54931 -32.3206
rfingers 7.12502
rthumb 20.2656 -61.2834
lclavicle -7.4948e-015 -6.95746e-015
lhumerus -40.8861 1.52597 91.8416
lradius 38.0838
lwrist -10.7825
lhand -1.96986 -23.684
lfingers 7.12502
lthumb 23.7023 4.87457
rfemur 9.17951 3.71939 16.0861
rtibia 0
rfoot -22.2629 -13.7305
rtoes -1.30476
lfemur -3.8028 -9.06855 -12.3872
ltibia 20.7494
lfoot -21.4192 9.1822
ltoes -55.9698
15
root -0.810674 18.6556 6.11479 1.30851 1.14131 -1.25714
lowerback 1.21617 -0.0540571 -0.828797
upperback -1.3972 -0.0891319 0.0691505
thorax -2.11196 -0.0310403 0.538029
lowerneck -11.1701 -3.4417 -3.20601
upperneck 21.7102 -5.24944 4.77034
head 8.83219 -2.24666 1.57694
rclavicle -3.19919e-015 -4.77083e-015
rhumerus -43.9905 1.39949 -91.2685
rradius 39.4053
rwrist 22.5341
rhand -5.56921 -32.1328
rfingers 7.12502
rthumb 20.2464 -61.0976
lclavicle -3.19919e-015 -4.77083e-015
lhumerus -40.9191 1.51817 91.8391
lradius 38.0997
lwrist -10.7981
lhand -1.96677 -23.696
lfingers 7.12502
lthumb 23.7053 4.86213
rfemur 9.1793 3.71918 16.079
rtibia -1.59028e-015
rfoot -22.2819 -13.7195
rtoes -1.20897
lfemur -3.81569 -9.07048 -12.3923
ltibia 20.7712
lfoot -21.4127 9.1339
ltoes -55.933
